<svg xmlns="http://www.w3.org/2000/svg" viewBox="0 0 577.95 804.02"><g id="katman_2" data-name="katman 2"><g id="katman_1-2" data-name="katman 1"><path d="M549.25,685.38,562,677,564.3,679c-10.41,17.45-20,35.45-31.42,52.24-16.35,24.11-37.55,43.53-62.13,59.34-9.62,6.19-20.14,7.82-31,8-3.23.06-6.89-2.42-9.7-4.58-16.82-12.93-33.48-26.09-50.15-39.22-3.88-3.06-7.73-4.24-13-4.44-5.65-.21-11.82-3.47-16.56-7-6-4.52-11.06-5.69-17.32-1.08-2.55,1.88-6.12,2.4-8.55,4.38-2,1.62-4.54,4.75-4.17,6.72,1.58,8.46-1.73,14.92-6.9,20.84-17,19.41-37.91,31-64.14,29.82A235.76,235.76,0,0,1,207,798.16c-15.53-3.59-26.45-14.66-35-27.64-2.66-4-3.65-9.32-4.75-14.18-1-4.63-3-7.73-7.54-9.84-26.92-12.62-51.89-28.07-72.16-50.33a11.08,11.08,0,0,0-7.94-2.92,30.67,30.67,0,0,1-21.25-6.72c-22.23-17-37.5-38.63-43.29-66.24-1.58-7.5-2.9-15.39,2.31-22.62,1.25-1.74,1.3-5,.72-7.29-9.54-37.55-6.4-75.51-4.42-113.52,1.31-25.34-.28-50.58-3.43-75.87-3.92-31.53-6.42-63.26-8.57-95C.38,286.3-1,266.28,1,246.74c1.8-17.4,8.25-34.32,12.68-51.44a7.31,7.31,0,0,1,1.18-2.49c19.36-25.63,38.2-52,72.28-59.63,9.28-2.08,13.6-6.42,13.67-16.45.08-10.3,2.31-20.58,3.39-30.89.66-6.26,1.35-12.09,6.74-16.72,1.88-1.61,1.88-5.94,2-9,.57-26,1.53-29.07,26.5-36.64C168.89,14.51,198.92,7.22,229,.63c8.3-1.81,17.87.67,26.58,2.51,26.78,5.64,53.56,11.39,80.07,18.15,14.95,3.82,18.8,10.45,18.38,25.78-.22,7.72,1.13,14.27,5.78,21.27,4,6,3.81,14.87,5.18,22.52,1.62,9.07,2.61,18.26,4.59,27.24a11.1,11.1,0,0,0,5.62,6.68c4.55,2,9.71,2.74,14.55,4.19,20.34,6.11,38,16.26,51.22,33.4,4.05,5.26,9,9.85,13.31,14.89,1.94,2.25,4.26,4.61,5.06,7.31,6,20.27,14.18,40.33,16.84,61.07,2.87,22.44,1.73,45.64.18,68.37-2.52,37-8.49,73.8-9.81,110.8-1.12,31.23,2.21,62.62,3.9,93.92.09,1.8,3,4.78,4.82,4.93,11.4.92,18.65,7.21,25.31,16,4.59,6.06,11,11.14,17.53,15.25,12.44,7.87,25.44,14.86,38.34,22,13.36,7.36,23.8,27.93,21,45.4-2.55,16.07-6.75,31.9-10.65,47.73-.47,1.93-3.41,3.46-5.46,4.77-4.55,2.89-9.27,5.53-13.92,8.27Zm-73.64-93.81c-14.73,11.08-26.19,25.09-36.7,39.94l36.94-39.68,33.95-21.78C497.13,575.15,485.21,581.49,475.61,591.57Zm-8.09,23.77c2.28-1.92,4.57-3.83,6.85-5.76,11.36-9.6,21.4-20.9,36.1-26.07,5.66-2,10.72-5.68,16.06-8.6-1.34-1-2.32-1.16-3.11-.85a130.76,130.76,0,0,0-56.12,41.09l-20.64,24.1,2,1.6ZM327.42,266.26v.16c-1.39,0-2.78.11-4.15,0-14-1.4-25.16,3.65-33.94,14.59s-13.17,22.53-6.8,36.27c.77,1.65.92,3.58,1.67,5.25C298.33,354,311.52,386,327.05,416.75c10.43,20.69,29.76,31.95,52.4,35.87,22.08,3.81,44,5.15,61.14-14.29,3.59-4.08,7.11-7.35,7.63-13.2.59-6.63,2.43-13.14,3.23-19.76,1.7-14.1,4.8-28.31,4.2-42.35-.9-20.88-4.34-41.66-7-62.45-1.66-12.86-12.35-19.28-20.72-27.23-1-.95-3-1.06-4.58-1.16Q375.38,269.17,327.42,266.26ZM21.89,361.89c2.33,20.84,4.46,42.6,7.41,64.26.67,5,3.07,10.75,6.63,14.06,6.82,6.35,14.88,11.46,22.73,16.62,8.08,5.3,17,1.25,25.51,1.24,27.69,0,48.56-13.72,61.73-36.77A484.06,484.06,0,0,0,191.07,314C196.31,295.69,174.5,267.57,156,269c-11.25.84-22.56.89-33.81,1.78-20.66,1.64-41.32,3.4-61.93,5.55-18.08,1.9-30.09,15.88-32.22,28.24C24.81,323.07,23.89,342,21.89,361.89Zm160-333.4c2.91,5.89,5.72,10.22,7.28,15Q198.9,73.25,208,103.29c1.42,4.73,3.34,6.81,8.53,6.62,12-.44,24-.32,35.95-.38,9.91-.06,10.34-.34,12.4-9.88,5.18-24.08,10.54-48.11,21-70.63a6.19,6.19,0,0,0,0-2.2c-10.78-2.88-21.36-6-32.08-8.47-7.56-1.74-15.74-4.82-22.89-3.42C214.53,18.12,198.64,23.68,181.84,28.49ZM421.51,767.07l2.92-.7c0-4.32-.36-8.69.1-13a78.59,78.59,0,0,1,2.74-12.83c15.28-53.33,43.39-98.65,86.58-133.63,14.3-11.59,30-24.3,51.37-13.86-4.76-5.33-7.19-13.9-15.59-13.25-9.3.71-19.48,1.4-27.46,5.57-19.5,10.18-35.32,25.21-49.33,42.34-19.23,23.51-31.48,50.82-44.64,77.73C421,720.12,418,735.59,417.93,751.6,417.9,756.75,420.25,761.92,421.51,767.07ZM281.37,621.69l2.08,1.18c3.32-7.42,8.36-14.58,9.6-22.34,2.29-14.36,1.28-28.56-12.14-38.65-19-14.28-40-17.6-62-10-15.88,5.44-29.34,13.93-30.73,34.06-.89,13,3.19,29.14,12.3,35.57-10-21.16-6.93-37.72,9.47-50.49,17.83-13.88,45.25-13.39,62.94,1.13C288.23,584.72,291.24,602.28,281.37,621.69Zm252.4,40.79c.28-4.31.09-7.84.8-11.19,2.6-12.37,5.66-24.65,8.17-37,.62-3.09-.2-6.47-.35-9.72l-2.61-.21c-.9,2.18-2.16,4.29-2.62,6.55-2.5,12.17-5.37,24.3-7,36.59-1.39,10.47-5.51,18.39-14.18,24.71-5.11,3.73-7.18,3.13-9.67-2.17-3.72-7.91-7.73-15.7-12-23.31-.85-1.5-3.52-2-5.35-2.91-.31,2.23-1.5,4.85-.74,6.62,1.72,4,4.54,7.45,6.69,11.26,13.64,24.26,13.81,15.54-.29,40.16-.11.2-.2.46-.38.57-2.34,1.53-4.53,3.9-7.09,4.4-11.28,2.2-22.7,3.67-34,5.84-2.7.52-5.07,2.72-7.59,4.14.4,1.06.8,2.12,1.19,3.18l44.69-7.35C500.63,692.73,512.8,673.11,533.77,662.48ZM19.7,599.93c14.58-3.71,21.25-2,33.61,7.66,17.8,13.93,26.3,33.25,32.36,54.16,3.18,11-6.67,22.47-17.53,19-6.93-2.24-13.34-6.93-19.11-11.59-5.28-4.27-9.39-10-14-15.07,6.85,12.48,16.16,22.5,28.9,28.82,6.16,3.06,13,4.85,18.9-.09,5.73-4.8,9.27-11.39,6.61-19-4-11.65-8.16-23.38-13.59-34.41-8-16.21-21.08-27.74-37.21-35.72C30,589.35,21.58,592.31,19.7,599.93ZM179.35,712.35c43.44-22,86.11-20.16,130.3,1.65C284.86,686.84,207.2,686.61,179.35,712.35ZM161.24,77.75c-7.64,12.87-8.06,25.63-9.75,39.09l21.33-2.38ZM300.11,112.2l17.31,1.18c-2.5-11.64-4.77-22.17-7-32.7a6.12,6.12,0,0,0-2.89,3.7C305.06,93.41,302.69,102.45,300.11,112.2Zm144,663.07,41.62-37.42C477.31,737.86,442.9,768.8,444.07,775.27ZM289.64,536.57c-31.33-23.84-87.12-17.28-107.65,7.85C216.29,518.77,252.14,516.45,289.64,536.57Zm279.18,81.59c-9.74,15.68-18.47,30-24.62,45.77C551.61,658.77,570.41,624.73,568.82,618.16Zm-277.79,7c-5.79,4.63-10.88,9.78-16.93,13.27a70.7,70.7,0,0,1-20.32,8.07,67.32,67.32,0,0,1-21.21.56c-6.93-.82-13.65-3.39-20.91-5.31C238.43,658.76,279.33,646,291,625.14Zm-30.71-82.25c-19.93-7.74-54.19-.35-64.43,13.86C216,544.11,236.58,536,260.32,542.89ZM73.83,647.17C70.19,630.64,50.26,611,37.2,611.26,56.48,615.47,62.94,632.65,73.83,647.17ZM219,772.15c17.61-3.83,35.19-4,52.63,1.43C254.33,766,236.78,765.94,219,772.15Z"/></g></g></svg>