<svg xmlns="http://www.w3.org/2000/svg" viewBox="0 0 1088.81 214.81"><g id="katman_2" data-name="katman 2"><g id="katman_1-2" data-name="katman 1"><path d="M276,68.4c-16.32,4.21-32.38,8.43-48.47,12.5C212,84.81,196.7,89.94,181,92c-15.4,2-31.23,1.25-46.86,1.07C102.8,92.73,71.49,92,40.18,91.34c-1.47,0-3,0-4.83,0-.42,9-.89,17.56-1.21,26.16-.43,11.82-1,23.64-1,35.46,0,4.87-1.18,7.34-6.46,6.22a6.72,6.72,0,0,0-1.94.15c-3.89,13.72,1.17,27.56,13.57,33.56,22.36,10.8,45.19,11.43,67.71.2,11.07-5.53,16.69-15,17.06-27.33q.5-16.23.08-32.48c-.1-4.34,1.59-5.75,5.51-5.49,2,.13,4.07-.07,5.94.47,1.07.31,2.59,1.82,2.57,2.77-.27,13.81.14,27.72-1.43,41.4-2,17.13-13.18,27.87-28.45,34.48-21.88,9.46-44.14,11-66.4,1.48C18.32,198.75,10,187.21,10.11,164c0-1.64,0-3.28,0-4.66-.63-.44-.87-.75-1.14-.77-9.22-.8-9.2-.8-8.87-10.19Q1.57,105.7,3,63c0-.65.13-1.29.32-3l33,1.66c.07-.63.3-2.73.55-5,10.15,0,20.09-.14,30,0,32.15.56,64.29,1.29,96.44,1.8a122.62,122.62,0,0,0,14.42-1.11c2.22-.24,4.81-2.41,5.78,1.73.06.25,2.12.28,3.15,0,33.49-8.65,67-17.28,100.41-26.14a18.48,18.48,0,0,0,7.46-4.54c4.39-4.11,9.21-4.73,14.8-3.4a31.09,31.09,0,0,0,7.61.42c5-.09,10.12-.09,15.14-.59,5.94-.59,11.83-1.72,17.75-2.52a65.46,65.46,0,0,1,8.92-.83q72.73.16,145.47.46c14.5.06,29,.22,43.48.4,2.33,0,3.83-.13,4.87-2.89.56-1.48,3.54-2.77,5.5-2.87,6.44-.36,12.91-.14,19-.14,1-5.35,1.78-10.27,2.92-15.11.21-.86,1.89-1.37,1.8-1.32l9.85,14c6.59-4.86,13.53-3.49,15.95,2.69,11.92,0,24.08.3,36.21-.11,8.21-.28,15.72,1.57,23.27,4.45a37,37,0,0,0,12.57,2.49q76,.64,152,.82c6.47,0,12.86,0,19.51-1.46s15.15-.94,21,2.19c6.72,3.59,12.9,2.24,19.2,2.33,31.83.45,63.66.4,95.48.52,7.73,0,7.74,0,8.93-7.75.37-2.43.66-4.87,1-7.59,5.05,0,9.72-.32,14.32.16,1.67.18,3.62,2,4.58,3.58,1.17,1.92,1.5,4.37,2,6.63.94,3.9,1.9,7.38,6.54,2.82.58-.56,1.88-.54,2.85-.55,19.42,0,38.84,0,58.68,0V56.53c-13.06,0-25.84,0-38.62,0-5,0-10,.1-15-.39-3.45-.35-6.8-1.66-10.21-2.49a15.39,15.39,0,0,0-3.41-.52q-69.49-.37-139-.7c-.64,0-1.29.15-2.25.26v7.51a57.44,57.44,0,0,1,7.88.08c2.21.31,4.31,1.35,6.46,2.07.31.11.6.41.89.41,5.93-.09,11.86-.16,17.79-.34,3.45-.1,7.29-1.46,10.25-.35,5.28,2,8.33.2,10.28-3.11,2.59.87,4.6,1.6,6.64,2.24.94.29,2.34.09,2.82.68,5.42,6.65,11.68,3.25,18,2a46.24,46.24,0,0,1,12.93-.33c38.24,3.65,76.58,1.32,114.86,2.25a26.37,26.37,0,0,1,2.63.35V95.4h-5.91c-30-.1-60-.31-90-.23-7,0-14.09,1.47-21.13,1.37-8.32-.12-16.63-1.26-24.95-1.82-2.34-.15-4.59-.63-6.21,2.6-.77,1.52-4.64,1.47-7.5,2.24-.33,1.78-.74,4-1.15,6.16l-1,.11a14.75,14.75,0,0,1-.79-2.75c-.39-5.17-3.29-7.14-8.07-5.57a14.27,14.27,0,0,1-4.33.56c-7.44.05-14.88,0-22.62,0-.18,2.26-.33,4.2-.51,6.43a14.87,14.87,0,0,1-3.32.53c-24-1.5-47.37,3.6-71,6.52-28.06,3.47-56,4.17-83.54-4.69a59.53,59.53,0,0,0-17.16-2.38c-22.32-.34-44.65-.46-67-.2-4.28,0-8.58,2.08-12.79,3.42-2.21.7-4.2,2-6.39,2.81-4.75,1.7-6.35.52-6.41-4.52,0-2,0-4,0-6.78-7.73,0-15.16,0-22.59,0q-22.74-.06-45.49-.15c-3,0-5.54-.08-7.48-3.53-1-1.83-4.81-2.86-7.39-3-23-.88-46-1.48-69-2.12-4.25-.12-8.51,0-13.44,0,1.65,5.38,1.72,9.22-4.42,9.61-.77.05-1.94,1.54-2.07,2.48-.62,4.49-3.71,5.61-7.52,6.54-8.88,2.17-17.7,4.6-26.48,7.15a9.78,9.78,0,0,0-4.66,3.11c-5.92,7.53-12.95,11.57-23,9.24-8.73-2-17.64-3.33-26.43-5.11-3.71-.75-5.91.29-7.29,4-7.65,20.37-15.51,40.65-23.09,61.05-.62,1.68,0,4.1.67,5.9.83,2.11,2.94,3.78,3.55,5.91.73,2.55,1.55,6.15.34,7.9s-5.12,2.87-7.48,2.42c-18.29-3.51-36.5-7.44-54.72-11.31-3.17-.67-6.16-6.8-5-11.21a89.52,89.52,0,0,1,5-14c7.78-17.27,15.77-34.45,23.7-51.66,6.29-13.64,1.64-26.84-12.62-31.27-10.51-3.27-16.49-7.82-13.81-19.55C276.64,70.75,276.18,69.73,276,68.4ZM413.52,117c-7.3-3.28-8.23-5.11-6.88-13.09a38.18,38.18,0,0,0,.47-5.45c.08-2.84-1.24-4.23-4.24-4.16-5.32.11-10.65-.12-16,.07-6,.22-11.24,4.22-11.85,10.05-.54,5.16.44,10.49.84,17.35-4-7.24-7.52-13.51-11-19.77l-2,.9c1.12,4.89,1.93,9.89,3.52,14.63a7.39,7.39,0,0,0,4.64,4.08c8.09,1.84,16.28,3.3,24.47,4.63S409.23,124.53,413.52,117ZM162,77.9a10,10,0,0,0-10.59-9.52c-5.07.18-9.32,4.29-9.35,9,0,5.25,5.07,10.2,10.27,10S162.11,82.64,162,77.9ZM93.25,67.3c-5.45,0-9.83,3.94-9.93,9s5,10,10.27,10c5,0,9.62-4.61,9.56-9.48C103.08,71.34,98.89,67.32,93.25,67.3ZM64.13,85.54c5.13,0,10-4.6,9.84-9.31a10.46,10.46,0,0,0-10.19-9.67c-5.38.14-9.86,4.47-9.72,9.38A9.91,9.91,0,0,0,64.13,85.54Zm58.4,1.1c5.24.09,10.11-4.25,10.06-9a10.11,10.11,0,0,0-9.79-10,9.5,9.5,0,1,0-.27,19Z"/></g></g></svg>