<svg xmlns="http://www.w3.org/2000/svg" viewBox="0 0 1087.87 302.33"><g id="katman_2" data-name="katman 2"><g id="katman_1-2" data-name="katman 1"><path d="M370.93,147.56c-3.94-1.29-7-2.68-10.13-3.22a116.4,116.4,0,0,0-12.13-.93c-6.12-.41-12.25-1.1-18.37-1.13q-35-.15-70,.16c-3.34,0-7.39-2.62-10,1.8,2.56,7.24,2.1,7.77-5.62,10.39-1.54.52-3,3-3.41,4.76-1,4-3.19,5.88-7.29,6.86-12.91,3.11-25.72,6.66-38.53,10.18a8,8,0,0,0-4.41,2.7c-8.2,12.65-19.46,16.67-34,13.22-11.13-2.63-22.42-4.68-33.69-6.73-3.6-.65-6.87.22-8.43,4.34-10.72,28.26-21.54,56.48-32.18,84.78a7,7,0,0,0,.61,5c1.51,2.95,4.05,5.44,5.18,8.49,1.26,3.44,3.19,8.76,1.65,10.57-2.14,2.53-7.47,4-11,3.41-15-2.56-29.94-6.05-44.89-9.22q-12.19-2.58-24.37-5.23c-6.61-1.44-11.46-8.52-9.4-15.09a217.79,217.79,0,0,1,9.28-24.1c9.53-21.22,19-42.47,29.23-63.37,8.51-17.42.49-36.92-16.94-42.76a156.13,156.13,0,0,1-14.91-5.6A6.19,6.19,0,0,1,4,132.34c-.21-9.82-.12-19.66.19-29.48.07-2.35,1.35-4.67,2.11-7,2-6,4.17-11.93,6-18,1.92-6.53,5-11.9,11.68-14.58A7.6,7.6,0,0,0,26.39,61c6-6.92,15-9,22.94-4.62,3.35,1.85,5.36,1.31,8.4-.76A37.79,37.79,0,0,1,69.52,50.7Q162,26.85,254.56,3.22C268.09-.25,281.83-.17,295.68.13,345.31,1.2,395,2,444.59,2.82c15,.26,30,.18,45,.83C521.05,5,552.52,6.83,584,8.31c3.32.15,4.49,1.28,4.13,4.49a52.17,52.17,0,0,0,0,5.78c8.67.56,16.94,1.13,25.22,1.63,12.12.75,24.25,1.45,36.38,2.18a23.47,23.47,0,0,1,3.46.37c5.84,1.24,9.27,5,8.93,9.64-.37,5-4.26,8.37-10.6,8.18-19.31-.59-38.61-1.47-57.92-2.21-2-.08-3.94,0-6.23,0-.16,2.23-.24,4.18-.43,6.12-.6,6-1.89,7.34-7.83,7-13.46-.76-26.91-1.75-40.37-2.59-5-.31-9.93-.47-14.89-.7l-.4,1.8c5.09,1.13,10.15,3.14,15.26,3.23,23.49.41,47,.25,70.48.36,50.66.24,101.31.56,152,.68,2.65,0,5.29-2.17,8-2.22a103.17,103.17,0,0,1,13.67,1.15c1.21.14,2.35,1.06,3.55,1.12,3.32.17,6.7-.22,10,.19,2,.25,3.9,1.57,5.84,2.41l-.38,1.67c9.15,0,18.3,0,27.45,0q62.75.33,125.47.69c6.94,0,8.07-.87,9.1-7.53.65-4.25,1.11-8.52,1.72-13.25,6.69,0,13.18-.34,19.59.21,1.82.16,4.13,2.58,5,4.51,1.71,3.92,2.47,8.26,3.82,12.35,1.48,4.49,3.06,4.77,6.7,2a9.5,9.5,0,0,1,5.2-2.06c17.79-.33,35.58-.49,53.38-.64,8.12-.07,16.24,0,24.77,0V96.89c-7.76,0-15.51.1-23.26,0-18.15-.27-36.29-.64-54.43-1-1.3,0-3.21.07-3.78-.68-3.44-4.57-8.26-3.51-12.82-3.52q-90.48-.3-181-.54c-1,0-1.95.14-3.25.24v10.91c4.68,0,9.44-.19,14.16.1,1.58.1,3.05,1.51,4.62,2.19,1.12.5,2.47,1.35,3.47,1.08a33.85,33.85,0,0,1,19.18.17c4,1.21,8.91-1.06,13.43-1.34a15.13,15.13,0,0,1,6,1.35c4,1.54,9.66-1.38,11.31-5.2,2.61,1,5,2.57,7.47,2.61,4,.07,6.47,1.06,6.44,6,6.62,0,13.67,1.82,19.07-.39,11-4.52,22.43-3.54,32.77-1.7,23.55,4.17,47,1.43,70.46,2.15,23.81.73,47.66.28,71.49.36a24,24,0,0,1,2.6.29v38.51c-9.65,0-19.09,0-28.54,0-34.83-.15-69.68-1.17-104.46,0-11.08.36-22.31,2-33.53,1.89-8.28-.07-16.1-4.4-24.64-2.8-2.63.5-5.84-.79-6.26,3.68-.07.79-2.24,1.78-3.54,2a56.32,56.32,0,0,1-7.43.09c-.24,3.21-.46,6.17-.68,9.13l-1.28,0a22.07,22.07,0,0,1-.63-3.38c-.3-7.28-4.76-9.56-11.84-7.69-4.58,1.21-9.78.12-14.7-.06-1.1,0-2.21-1-3.25-.86-5.82.6-11.62,1.39-18,2.19-.23,2.24-.54,5.16-.88,8.4a25.69,25.69,0,0,1-3.84.34c-26.27-1.52-52.16,1.75-77.92,6.31-21.71,3.85-43.57,4.55-65.57,5.25-23.62.75-45.8-4.74-68.16-10.58a54.69,54.69,0,0,0-13.21-1.81c-30.66-.26-61.33-.15-92-.5-7-.08-13,1.88-19,4.85a86.78,86.78,0,0,1-8.65,3.87c-6,2.17-7.79.82-7.86-5.51,0-2.66-.14-5.33-.29-8,0-.46-.4-.89-.85-1.81H456.61c-25.66,0-51.32-.1-77-.07C375,153.36,371.24,152.53,370.93,147.56ZM187,177c-9.15-2.72-10.87-5.4-9.71-15.19.31-2.64.87-5.27.94-7.92.14-5.66-1.28-7.14-7-7.19-6,0-12,.14-18,.19-13.58.1-22.45,11.08-19.54,24.41.72,3.29,2,6.47,3.3,10.81-6.68-5.71-9.65-12.35-11.75-19.34-1-3.25-2.44-5.13-7.43-5.71,2.06,8.59,3.81,16.44,5.94,24.2a5.28,5.28,0,0,0,3.6,2.89c12.89,2.29,25.82,4.36,38.74,6.46C172.43,191.64,183.8,186.55,187,177ZM238.86,49.48l.13,1.2c2.45.13,4.91.37,7.36.38q42.93.19,85.86.31c12,0,24,.06,36-.07,1.12,0,2.23-1.19,3.35-1.82-1.05-.68-2.07-1.42-3.17-2a3.45,3.45,0,0,0-1.48,0c-35.34.48-70.72-3.73-106.31.72-.22-1-.52-2.4-.89-4.15ZM354.12,21.71A13.48,13.48,0,0,0,340.28,8.35C333,8.38,327,14.09,327,21a13.46,13.46,0,0,0,13.75,13.38C348,34.29,354.17,28.42,354.12,21.71Zm-52.77,11.8c7.36,0,13.5-5.62,13.56-12.4,0-7.2-6.38-13.6-13.74-13.67-7.1-.07-13.4,5.88-13.37,12.64C287.84,27.89,293.51,33.51,301.35,33.51ZM393.19,22.7A13.5,13.5,0,0,0,379.63,9.1c-7.24-.06-13.45,5.67-13.51,12.46a13.84,13.84,0,0,0,13.54,13.75C386.72,35.35,393.12,29.38,393.19,22.7ZM412,20.79l1.39,1c0,1.64-.63,3.68.12,4.85,2,3.1,4.13,6.45,7.08,8.42,1.3.86,5-.9,7-2.3,4.85-3.33,6.06-9.6,3.46-15.19-2.48-5.36-8.79-8.7-14.34-7.6-8.3,1.65-13.09,8.81-10.44,15.56ZM29.46,62l18.75-3.16C40.81,55,34.46,56.14,29.46,62Z"/></g></g></svg>